HIERARCHY
ROOT Hips
{
  OFFSET 0.0273292 -0.436096 0.279869
  CHANNELS 6 Xposition Yposition Zposition Zrotation Xrotation Yrotation
  JOINT LHipJoint
  {
    OFFSET 0 0 0
    CHANNELS 6 Xposition Yposition Zposition Zrotation Xrotation Yrotation
    JOINT LeftUpLeg
    {
      OFFSET 1.36306 -1.79463 0
      CHANNELS 6 Xposition Yposition Zposition Zrotation Xrotation Yrotation
      JOINT LeftLeg
      {
        OFFSET 2.44807 -6.72613 0.000295034
        CHANNELS 6 Xposition Yposition Zposition Zrotation Xrotation Yrotation
        JOINT LeftFoot
        {
          OFFSET 2.5622 -7.03959 3.59965e-05
          CHANNELS 6 Xposition Yposition Zposition Zrotation Xrotation Yrotation
          JOINT LeftToeBase
          {
            OFFSET 0.15764 -0.43311 2.32255
            CHANNELS 6 Xposition Yposition Zposition Zrotation Xrotation Yrotation
            End Site
            {
              OFFSET 0 0 0
            }
          }
        }
      }
    }
  }
  JOINT RHipJoint
  {
    OFFSET 0 0 0
    CHANNELS 6 Xposition Yposition Zposition Zrotation Xrotation Yrotation
    JOINT RightUpLeg
    {
      OFFSET -1.30552 -1.79463 0
      CHANNELS 6 Xposition Yposition Zposition Zrotation Xrotation Yrotation
      JOINT RightLeg
      {
        OFFSET -2.54234 -6.98562 -0.000396375
        CHANNELS 6 Xposition Yposition Zposition Zrotation Xrotation Yrotation
        JOINT RightFoot
        {
          OFFSET -2.56826 -7.05623 -4.47982e-05
          CHANNELS 6 Xposition Yposition Zposition Zrotation Xrotation Yrotation
          JOINT RightToeBase
          {
            OFFSET -0.16473 -0.45259 2.36315
            CHANNELS 6 Xposition Yposition Zposition Zrotation Xrotation Yrotation
            End Site
            {
              OFFSET 0 0 0
            }
          }
        }
      }
    }
  }
  JOINT LowerBack
  {
    OFFSET 0 0 0
    CHANNELS 6 Xposition Yposition Zposition Zrotation Xrotation Yrotation
    JOINT Spine
    {
      OFFSET 0.0282699 2.03559 0
      CHANNELS 6 Xposition Yposition Zposition Zrotation Xrotation Yrotation
      JOINT Spine1
      {
        OFFSET 0.05672 2.04885 -0.04275
        CHANNELS 6 Xposition Yposition Zposition Zrotation Xrotation Yrotation
        JOINT Neck
        {
          OFFSET 0 0 0
          CHANNELS 6 Xposition Yposition Zposition Zrotation Xrotation Yrotation
          JOINT Neck1
          {
            OFFSET -0.05417 1.74624 0.17202
            CHANNELS 6 Xposition Yposition Zposition Zrotation Xrotation Yrotation
            JOINT Head
            {
              OFFSET 0.10407 1.76136 -0.12397
              CHANNELS 6 Xposition Yposition Zposition Zrotation Xrotation Yrotation
              End Site
              {
                OFFSET 0 0 0
              }
            }
          }
        }
        JOINT LeftShoulder
        {
          OFFSET 0 0 0
          CHANNELS 6 Xposition Yposition Zposition Zrotation Xrotation Yrotation
          JOINT LeftArm
          {
            OFFSET 3.36241 1.20089 -0.311211
            CHANNELS 6 Xposition Yposition Zposition Zrotation Xrotation Yrotation
            JOINT LeftForeArm
            {
              OFFSET 4.983 0.000197398 0.000166057
              CHANNELS 6 Xposition Yposition Zposition Zrotation Xrotation Yrotation
              JOINT LeftHand
              {
                OFFSET 3.48356 0 1.87849e-05
                CHANNELS 6 Xposition Yposition Zposition Zrotation Xrotation Yrotation
                JOINT LeftFingerBase
                {
                  OFFSET 0 0 0
                  CHANNELS 6 Xposition Yposition Zposition Zrotation Xrotation Yrotation
                  JOINT LeftHandIndex1
                  {
                    OFFSET 0.71526 0 0
                    CHANNELS 6 Xposition Yposition Zposition Zrotation Xrotation Yrotation
                    End Site
                    {
                      OFFSET 0 0 0
                    }
                  }
                }
                JOINT LThumb
                {
                  OFFSET 0 0 0
                  CHANNELS 6 Xposition Yposition Zposition Zrotation Xrotation Yrotation
                  End Site
                  {
                    OFFSET 0 0 0
                  }
                }
              }
            }
          }
        }
        JOINT RightShoulder
        {
          OFFSET 0 0 0
          CHANNELS 6 Xposition Yposition Zposition Zrotation Xrotation Yrotation
          JOINT RightArm
          {
            OFFSET -3.1366 1.37405 -0.404651
            CHANNELS 6 Xposition Yposition Zposition Zrotation Xrotation Yrotation
            JOINT RightForeArm
            {
              OFFSET -5.2419 -5.8808e-05 -0.000165864
              CHANNELS 6 Xposition Yposition Zposition Zrotation Xrotation Yrotation
              JOINT RightHand
              {
                OFFSET -3.44417 0 -2.00002e-05
                CHANNELS 6 Xposition Yposition Zposition Zrotation Xrotation Yrotation
                JOINT RightFingerBase
                {
                  OFFSET 0 0 0
                  CHANNELS 6 Xposition Yposition Zposition Zrotation Xrotation Yrotation
                  JOINT RightHandIndex1
                  {
                    OFFSET -0.62253 0 0
                    CHANNELS 6 Xposition Yposition Zposition Zrotation Xrotation Yrotation
                    End Site
                    {
                      OFFSET 0 0 0
                    }
                  }
                }
                JOINT RThumb
                {
                  OFFSET 0 0 0
                  CHANNELS 6 Xposition Yposition Zposition Zrotation Xrotation Yrotation
                  End Site
                  {
                    OFFSET 0 0 0
                  }
                }
              }
            }
          }
        }
      }
    }
  }
}
MOTION
Frames:	5
Frame Time:	0.00833333
-0.0287305 0.459015 -0.268755 0 0 -3.09071 0 0 0 0 0 -0 1.36306 -1.79463 4.2992e-10 -85.1312 -76.3509 -89.2754 2.44811 -6.72613 -0.00024571 -102.372 66.1257 122.728 2.5622 -7.03959 5.3559e-05 -7.67686 -28.8091 -14.3022 0.15764 -0.43311 2.32255 -9.14409e-15 0 -7.95139e-16 0 0 0 0 0 -0 -1.30552 -1.79463 -1.11358e-08 94.7705 -70.1172 99.4135 -2.54251 -6.98556 -0.000321313 106.994 64.6616 -127.701 -2.56826 -7.05623 3.53778e-05 7.49505 -28.4461 14.1526 -0.16473 -0.45259 2.36315 -3.18055e-15 3.18055e-15 -7.95139e-16 0 0 0 0 0 -0 0.0282701 2.03559 4.03749e-09 0 0 -0 0.05672 2.04885 -0.04275 0 0 -0 0 0 0 0 0 -0 -0.05417 1.74624 0.17202 -0.849537 15.3545 3.20523 0.10407 1.76136 -0.12397 4.20943e-38 6.36111e-15 -3.79152e-22 0 0 0 0 0 -0 3.36241 1.20089 -0.31121 -70.003 0.000254135 0.00198007 4.983 0.000260727 0.000172215 0.00299244 -0.000254701 -0.00208129 3.48356 1.04107e-06 -6.27401e-06 -3.54085e-16 0 0.000101854 0 0 0 -3.85145e-16 -3.97569e-16 1.98785e-16 0.71526 0 0 -4.09993e-16 -1.19271e-15 3.97569e-16 0 0 0 -3.85145e-16 -3.97569e-16 1.98785e-16 0 0 0 0 0 -0 -3.1366 1.37404 -0.40465 70.0029 0.000245604 -0.00192708 -5.2419 0.000271698 0.000176292 -0.00292153 -0.000245239 0.00202839 -3.44417 -1.09964e-06 -6.1885e-06 -3.19298e-15 7.95139e-16 -0.0001007 0 0 0 6.34247e-15 -3.97569e-16 -3.97569e-16 -0.62253 0 0 3.16813e-15 3.97569e-16 -0 0 0 0 6.34247e-15 -3.97569e-16 -3.97569e-16 
-0.0282461 0.459027 -0.273085 -0.0362122 -0.704844 -2.94113 0 0 0 -1.37935e-33 1.98785e-16 3.97569e-16 1.36306 -1.79463 4.2992e-10 -84.1435 -75.3264 -88.2433 2.44811 -6.72613 -0.00024571 -103.2 65.8621 123.641 2.5622 -7.03959 5.3559e-05 -8.06866 -30.0981 -15.023 0.15764 -0.43311 2.32255 -1.59028e-15 3.18055e-15 -0 0 0 0 -1.37935e-33 1.98785e-16 3.97569e-16 -1.30552 -1.79463 -1.11358e-08 93.7648 -70.2845 98.3593 -2.54251 -6.98556 -0.000321313 106.97 64.6621 -127.7 -2.56826 -7.05623 3.53778e-05 8.07289 -29.6502 14.8022 -0.16473 -0.45259 2.36315 -4.77083e-15 3.18055e-15 -7.95139e-16 0 0 0 -1.37935e-33 1.98785e-16 3.97569e-16 0.0282701 2.03559 4.03749e-09 0 9.93923e-17 -0 0.05672 2.04885 -0.04275 -6.21202e-18 1.98785e-16 -0 0 0 0 -6.21202e-18 1.98785e-16 3.97569e-16 -0.05417 1.74624 0.17202 -0.605892 15.3618 2.28601 0.10407 1.76136 -0.12397 2.48481e-17 0 -0 0 0 0 -6.21202e-18 1.98785e-16 3.97569e-16 3.36241 1.20089 -0.31121 -70.5998 0.0696417 0.210844 4.983 0.000260727 0.000172215 0.00299698 -0.00850538 -0.0967733 3.48356 1.04107e-06 -6.27401e-06 3.41661e-15 0 0.000109281 0 0 0 3.44146e-15 3.97569e-16 -5.96354e-16 0.71526 0 0 6.62201e-15 7.95139e-16 -1.98785e-16 0 0 0 3.44146e-15 3.97569e-16 -5.96354e-16 0 0 0 -6.21202e-18 1.98785e-16 3.97569e-16 -3.1366 1.37404 -0.40465 70.5998 0.069634 -0.210806 -5.2419 0.000271698 0.000176292 -0.00286253 -0.000932251 0.00995867 -3.44417 -1.09964e-06 -6.1885e-06 -3.84835e-15 0 -0.000103277 0 0 0 -6.80216e-16 3.97569e-16 -1.98785e-16 -0.62253 0 -1.11022e-16 -3.85145e-15 7.95139e-16 1.98785e-16 0 0 0 -6.80216e-16 3.97569e-16 -1.98785e-16 
-0.0279973 0.459114 -0.275309 -0.100366 -2.25625 -2.54771 0 0 0 -1.2424e-17 7.95139e-16 -0 1.36306 -1.79463 4.2992e-10 -81.279 -74.9129 -85.2529 2.44811 -6.72613 -0.00024571 -103.425 65.7963 123.891 2.5622 -7.03959 5.3559e-05 -8.1982 -30.4697 -15.2427 0.15764 -0.43311 2.32255 -6.36111e-15 -3.18055e-15 -1.59028e-15 0 0 0 -1.2424e-17 7.95139e-16 -0 -1.30552 -1.79463 -1.11358e-08 90.8818 -70.7054 95.3412 -2.54251 -6.98556 -0.000321313 106.966 64.664 -127.701 -2.56826 -7.05623 3.53778e-05 8.15968 -29.9644 14.9804 -0.16473 -0.45259 2.36315 0 0 -7.95139e-16 0 0 0 -1.2424e-17 7.95139e-16 -0 0.0282701 2.03559 4.03749e-09 -3.72721e-17 7.95139e-16 -0 0.05672 2.04885 -0.04275 -1.2424e-17 7.95139e-16 -0 0 0 0 -1.2424e-17 7.95139e-16 -0 -0.05417 1.74624 0.17202 -0.518816 15.3369 1.96082 0.10407 1.76136 -0.12397 4.96962e-17 -1.59028e-15 9.93923e-17 0 0 0 -1.2424e-17 7.95139e-16 -0 3.36241 1.20089 -0.31121 -72.0126 0.268435 0.809847 4.983 0.000260727 0.000172215 0.00293641 -0.0322231 -0.368457 3.48356 1.04107e-06 -6.27401e-06 -6.54747e-15 0 0.000126692 0 0 0 -3.35449e-15 1.19271e-15 -0 0.71526 -8.88178e-16 0 3.00662e-15 7.95139e-16 -0 0 0 0 -3.35449e-15 1.19271e-15 -0 0 0 0 -1.2424e-17 7.95139e-16 -0 -3.1366 1.37404 -0.40465 72.0125 0.268429 -0.809842 -5.2419 0.000271698 0.000176292 -0.00283046 -0.0032001 0.0359488 -3.44417 -1.09964e-06 -6.1885e-06 1.963e-15 0 -0.000109515 0 0 0 1.96921e-15 3.97569e-16 1.98785e-16 -0.62253 -8.88178e-16 0 1.96921e-15 3.97569e-16 -9.93923e-17 0 0 0 1.96921e-15 3.97569e-16 1.98785e-16 
-0.0279057 0.459349 -0.276128 -0.132308 -3.80889 -1.99094 0 0 0 -4.96962e-17 0 -7.95139e-16 1.36306 -1.79463 4.2992e-10 -76.8188 -74.5805 -80.5988 2.44811 -6.72613 -0.00024571 -103.574 65.7659 124.055 2.5622 -7.03959 5.3559e-05 -8.26788 -30.676 -15.3634 0.15764 -0.43311 2.32255 3.97569e-16 3.18055e-15 7.95139e-16 0 0 0 -4.96962e-17 0 -7.95139e-16 -1.30552 -1.79463 -1.11358e-08 86.2707 -71.2211 90.5212 -2.54251 -6.98556 -0.000321313 106.967 64.668 -127.705 -2.56826 -7.05623 3.53778e-05 8.10207 -30.1533 15.0864 -0.16473 -0.45259 2.36315 1.59028e-15 0 -0 0 0 0 -4.96962e-17 0 -7.95139e-16 0.0282701 2.03559 4.03749e-09 -4.96962e-17 0 -7.95139e-16 0.05672 2.04885 -0.04275 -4.96962e-17 0 -7.95139e-16 0 0 0 -4.96962e-17 0 -7.95139e-16 -0.05417 1.74624 0.17202 -0.475212 15.2625 1.80467 0.10407 1.76136 -0.12397 -3.72721e-17 0 -0 0 0 0 -4.96962e-17 0 -7.95139e-16 3.36241 1.20089 -0.31121 -73.6777 0.582421 1.75766 4.983 0.000260727 0.000172215 0.00252906 -0.0698526 -0.798545 3.48356 1.04107e-06 -6.27401e-06 -2.54693e-15 1.98785e-16 0.000146778 0 0 0 6.58474e-16 3.97569e-16 -3.97569e-16 0.71526 8.88178e-16 0 6.83322e-16 1.98785e-16 -7.95139e-16 0 0 0 6.58474e-16 3.97569e-16 -3.97569e-16 0 0 0 -4.96962e-17 0 -7.95139e-16 -3.1366 1.37404 -0.40465 73.6777 0.582416 -1.75769 -5.2419 0.000271698 0.000176292 -0.00281064 -0.007359 0.0832979 -3.44417 -1.09964e-06 -6.1885e-06 1.98785e-15 -3.97569e-16 -0.000117173 0 0 0 5.18083e-15 3.97569e-16 -1.98785e-16 -0.62253 0 0 1.97542e-15 3.97569e-16 -3.97569e-16 0 0 0 5.18083e-15 3.97569e-16 -1.98785e-16 
-0.0278926 0.459806 -0.276245 -0.106219 -4.51571 -1.34887 0 0 0 1.2424e-17 -7.95139e-16 1.98785e-16 1.36306 -1.79463 4.2992e-10 -71.4205 -73.7873 -74.9636 2.44811 -6.72613 -0.00024571 -104.153 65.6017 124.691 2.5622 -7.03959 5.3559e-05 -8.51497 -31.4605 -15.8116 0.15764 -0.43311 2.32255 -3.97569e-16 -9.54166e-15 -7.95139e-16 0 0 0 1.2424e-17 -7.95139e-16 1.98785e-16 -1.30552 -1.79463 -1.11358e-08 80.1403 -71.6468 84.1203 -2.54251 -6.98556 -0.000321313 106.954 64.6748 -127.717 -2.56826 -7.05623 3.53778e-05 8.27768 -30.9736 15.5409 -0.16473 -0.45259 2.36315 3.97569e-16 6.36111e-15 -7.95139e-16 0 0 0 1.2424e-17 -7.95139e-16 1.98785e-16 0.0282701 2.03559 4.03749e-09 -1.2424e-17 0 1.98785e-16 0.05672 2.04885 -0.04275 -0 0 1.98785e-16 0 0 0 2.75869e-33 -7.95139e-16 1.98785e-16 -0.05417 1.74624 0.17202 -0.363345 15.118 1.3929 0.10407 1.76136 -0.12397 3.10601e-18 0 1.55301e-18 0 0 0 2.75869e-33 -7.95139e-16 1.98785e-16 3.36241 1.20089 -0.31121 -75.0344 0.996947 3.01309 4.983 0.000260727 0.000172215 0.00133938 -0.119827 -1.36845 3.48356 1.04107e-06 -6.27401e-06 7.72775e-15 3.97569e-16 0.000162232 0 0 0 -4.97583e-15 3.97569e-16 -0 0.71526 0 1.11022e-16 -4.98825e-15 0 3.97569e-16 0 0 0 -4.97583e-15 3.97569e-16 -0 0 0 0 2.75869e-33 -7.95139e-16 1.98785e-16 -3.1366 1.37404 -0.40465 75.0345 0.996941 -3.01314 -5.2419 0.000271698 0.000176292 -0.00278256 -0.0137191 0.155305 -3.44417 -1.09964e-06 -6.1885e-06 6.14369e-15 1.98785e-16 -0.00012401 0 0 0 4.55962e-15 -1.98785e-16 1.98785e-16 -0.62253 0 0 1.37286e-15 -1.98785e-16 -0 0 0 0 4.55962e-15 -1.98785e-16 1.98785e-16 
